# xmcd
#
# Track frame offsets:
#	150
#	13831
#	25305
#	37687
#	54810
#	75188
#	92877
#	105111
#	125075
#	143109
#
# Disc length: 2090 seconds
#
# Revision: 1
# Processed by: cddbd v1.4PL0 Copyright (c) Steve Scherf et al.
# Submitted via: audiograbber 1.82.02
#
DISCID=6a08280a
DTITLE=John Wayne - America, Why I Love Her
DYEAR=1979
DGENRE=Country
TTITLE0=Why I Love Her
TTITLE1=The Hyphen
TTITLE2=Mis Raices Estan Aqui (My Roots Are Buried Here)
TTITLE3=The People
TTITLE4=An American Boy Grows Up
TTITLE5=Face the Flag
TTITLE6=The Good Things
TTITLE7=The Pledge of Allegiance
TTITLE8=Why Are You Marching, Son?
TTITLE9=Taps
EXTD=
EXTT0=
EXTT1=
EXTT2=
EXTT3=
EXTT4=
EXTT5=
EXTT6=
EXTT7=
EXTT8=
EXTT9=
PLAYORDER=
